<?xml version="1.0" ?><svg id="Layer_1" style="enable-background:new 0 0 512 512;" version="1.1" viewBox="0 0 512 512" xml:space="preserve" xmlns="http://www.w3.org/2000/svg" xmlns:xlink="http://www.w3.org/1999/xlink"><style type="text/css">
	.st0{fill:#ED1C24;}
</style><path class="st0" d="M458,118.2L346.5,8.4C345,6.9,342.9,6,340.7,6H135c-31.1,0-56.3,26.6-56.3,59.4v219.2H51.3v148.6h27.4v13.4  c0,32.7,25.3,59.4,56.3,59.4h269.4c31.1,0,56.3-26.6,56.3-59.4V124.7C460.7,122.3,459.8,119.9,458,118.2z M337.9,24.4l97,95.6h-52.8  c-24.4,0-44.2-19.5-44.2-43.4V24.4z M443.7,446.6c0,22.9-17.6,41.5-39.3,41.5H135c-21.7,0-39.3-18.6-39.3-41.5v-13.4h187  c36.5,0,66-33.3,66-74.3v0c0-41-29.6-74.3-66-74.3h-187V65.4c0-22.9,17.6-41.5,39.3-41.5h185.9v52.7c0,33.8,27.4,61.3,61.2,61.3  h61.6V446.6z M138.7,375.9l0.1-0.3h12.5c0,4.4,1.1,7.7,3.2,9.8c2.1,2.1,5.1,3.2,8.8,3.2c3.4,0,6.1-1.3,8.3-3.8  c2.2-2.6,3.2-6,3.2-10.3V320h12.9v54.4c0,7.5-2.3,13.4-6.8,17.8c-4.5,4.4-10.4,6.6-17.7,6.6c-7.7,0-13.7-2-18.2-5.9  C140.7,389.1,138.5,383.4,138.7,375.9z M244.8,369.9c-2.3-2.1-6.4-3.9-12.2-5.6c-8.4-2.3-14.8-5.3-19.4-9.1  c-4.5-3.8-6.8-8.7-6.8-14.7c0-6.3,2.5-11.4,7.5-15.5c5-4.1,11.4-6.1,19.2-6.1c8.4,0,15.1,2.3,20.2,6.8c5,4.5,7.5,10.1,7.3,16.7  l-0.1,0.3H248c0-4.1-1.4-7.4-4.1-9.8c-2.7-2.4-6.3-3.6-10.9-3.6c-4.4,0-7.8,1-10.1,3.1c-2.4,2.1-3.6,4.7-3.6,8c0,3,1.3,5.5,3.9,7.4  c2.6,1.9,6.9,3.8,12.9,5.5c8.2,2.3,14.4,5.4,18.6,9.3c4.3,3.9,6.4,9,6.4,15.1c0,6.4-2.5,11.6-7.6,15.4c-5.1,3.8-11.7,5.8-19.9,5.8  c-7.9,0-14.8-2.1-20.7-6.3c-5.9-4.2-8.7-10.1-8.5-17.8l0.1-0.3h12.5c0,4.7,1.6,8.2,4.8,10.5c3.2,2.4,7.1,3.6,11.8,3.6  c4.6,0,8.2-1,10.7-2.9c2.5-1.9,3.8-4.6,3.8-7.9C248.3,374.6,247.1,371.9,244.8,369.9z"/></svg>